<svg xmlns="http://www.w3.org/2000/svg" viewBox="0 0 16 20" enable-background="new 0 0 16 16" x="0px" y="0px"><g><path d="M8 16c-.256 0-.512-.098-.707-.293l-6-6c-.391-.391-.391-1.023 0-1.414s1.023-.391 1.414 0l5.293 5.293 5.293-5.293c.391-.391 1.023-.391 1.414 0s.391 1.023 0 1.414l-6 6c-.195.195-.451.293-.707.293zM8 16c-.552 0-1-.447-1-1v-14c0-.552.448-1 1-1s1 .448 1 1v14c0 .553-.448 1-1 1z"/></g><text x="0" y="31" fill="#000000" font-size="5px" font-weight="bold" font-family="'Helvetica Neue', Helvetica, Arial-Unicode, Arial, Sans-serif">Created by ✦ Shmidt Sergey ✦</text><text x="0" y="36" fill="#000000" font-size="5px" font-weight="bold" font-family="'Helvetica Neue', Helvetica, Arial-Unicode, Arial, Sans-serif">from the Noun Project</text></svg>